PathFileType	4	(X/Y/Z)	/Users/itak/Documents/Research/Walk-IL/dataset/trc/00484_00167.trc
DataRate	CameraRate	NumFrames	NumMarkers	Units	OrigDataRate	OrigDataStartFrame	OrigNumFrames
100.000000	100.000000	4	53	mm	100.000000	0	606
Frame#	Time	RPSI			LPSI			L3			STRN			T10			C7			CLAV			RBAK			LBAK			LSHO			LUPA			LAEL			LAOL			LWTS			LWPS			LFRA			LIFD			LHPS			LHTS			RSHO			RUPA			RAEL			RAOL			RWTS			RWPS			RFRA			RIFD			RHTS			RHPS			RBHD			LFHD			RFHD			LBHD			LHIP			RHIP			RASI			LASI			LKNE			LTHI			LANK			LTIP			LTOE			LMT1			LMT5			LHEE			RKNE			RTHI			RANK			RTIP			RTOE			RMT1			RMT5			RHEE			
		X1	Y1	Z1	X2	Y2	Z2	X3	Y3	Z3	X4	Y4	Z4	X5	Y5	Z5	X6	Y6	Z6	X7	Y7	Z7	X8	Y8	Z8	X9	Y9	Z9	X10	Y10	Z10	X11	Y11	Z11	X12	Y12	Z12	X13	Y13	Z13	X14	Y14	Z14	X15	Y15	Z15	X16	Y16	Z16	X17	Y17	Z17	X18	Y18	Z18	X19	Y19	Z19	X20	Y20	Z20	X21	Y21	Z21	X22	Y22	Z22	X23	Y23	Z23	X24	Y24	Z24	X25	Y25	Z25	X26	Y26	Z26	X27	Y27	Z27	X28	Y28	Z28	X29	Y29	Z29	X30	Y30	Z30	X31	Y31	Z31	X32	Y32	Z32	X33	Y33	Z33	X34	Y34	Z34	X35	Y35	Z35	X36	Y36	Z36	X37	Y37	Z37	X38	Y38	Z38	X39	Y39	Z39	X40	Y40	Z40	X41	Y41	Z41	X42	Y42	Z42	X43	Y43	Z43	X44	Y44	Z44	X45	Y45	Z45	X46	Y46	Z46	X47	Y47	Z47	X48	Y48	Z48	X49	Y49	Z49	X50	Y50	Z50	X51	Y51	Z51	X52	Y52	Z52	X53	Y53	Z53	

1	0	-1214.849731445312	966.8851928710938	-9.266717910766602	-1193.675537109375	963.908935546875	-148.3453216552734	-1192.869506835938	1053.2958984375	-66.23262786865234	-929.4295043945312	1255.625244140625	-45.86056518554688	-1214.232421875	1175.743774414062	-76.57266998291016	-1157.909301757812	1446.670043945312	-58.47333145141602	-968.8057861328125	1367.14404296875	-53.75003814697266	-1226.088745117188	1324.224243164062	28.06022834777832	-1180.477294921875	1398.309936523438	-159.6016693115234	-1071.296508789062	1423.03955078125	-229.8960571289062	-1071.761352539062	1303.503173828125	-327.4687805175781	-1045.284790039062	1086.874633789062	-353.4467163085938	-1127.654296875	1076.608154296875	-293.038330078125	-967.5145874023438	892.890625	-307.0704650878906	-1014.201782226562	867.6115112304688	-360.5168762207031	-1025.43994140625	999.6289672851562	-361.6098937988281	-938.072998046875	739.6370849609375	-299.8762817382812	-994.9263305664062	789.6992797851562	-352.4058837890625	-942.0039672851562	813.7601928710938	-310.7309265136719	-1106.983764648438	1418.08935546875	106.3986129760742	-1133.25	1360.1962890625	180.8837585449219	-1130.740356445312	1080.114135742188	253.3285369873047	-1176.314575195312	1062.690307617188	206.3674163818359	-1036.422241210938	866.7442016601562	246.7289581298828	-1115.632202148438	859.0167236328125	287.3144836425781	-1132.47119140625	1023.101257324219	267.9407653808594	-1046.631225585938	711.801513671875	264.306884765625	-1029.65087890625	770.2982788085938	265.3096923828125	-1103.888671875	772.4281616210938	292.7734069824219	-1085.5869140625	1646.60107421875	36.77525329589844	-935.9738159179688	1665.75732421875	-105.9366989135742	-948.932861328125	1665.329833984375	24.20397758483887	-1084.280883789062	1650.94189453125	-141.1498718261719	-1049.035034179688	861.7405395507812	-249.5733947753906	-1122.028930664062	861.8090209960938	141.9986572265625	-1007.202758789062	899.3814086914062	97.87158203125	-959.3114624023438	894.7229614257812	-157.3960876464844	-1088.440673828125	446.4078369140625	-225.5807647705078	-1045.1240234375	595.4033203125	-238.1774139404297	-1175.733032226562	45.54924392700195	-237.5580291748047	-1104.923583984375	302.8854675292969	-245.8839874267578	-942.2759399414062	44.41005706787109	-160.9918518066406	-1021.455383300781	49.37636184692383	-135.0174407958984	-1019.689697265625	47.29832458496094	-248.4700164794922	-1221.989379882812	49.0313606262207	-174.2226104736328	-1116.846557617188	469.3029479980469	125.1235198974609	-1083.285278320312	728.25927734375	158.9651794433594	-1185.5771484375	44.75214004516602	136.4663238525391	-1122.564453125	328.6857604980469	137.7546539306641	-969.7137451171875	47.12977600097656	87.50405883789062	-1033.3369140625	53.17862319946289	51.99591827392578	-1052.789428710938	47.515625	159.5931701660156	-1250.673706054688	37.27120971679688	92.19738006591797	
2	0.01	-1214.88916015625	966.8331909179688	-9.279057502746582	-1193.702270507812	963.8460693359375	-148.3690032958984	-1192.94482421875	1053.248901367188	-66.17325592041016	-929.4600830078125	1255.621948242188	-45.85568237304688	-1214.26611328125	1175.697143554688	-76.579833984375	-1157.966796875	1446.609008789062	-58.53244400024414	-968.8926391601562	1367.1533203125	-53.78537368774414	-1226.122924804688	1324.185668945312	28.08923530578613	-1180.510986328125	1398.209716796875	-159.6495056152344	-1071.33251953125	1422.90966796875	-229.9608612060547	-1071.8623046875	1303.30224609375	-327.5508728027344	-1045.137451171875	1086.656860351562	-353.2075500488281	-1127.531372070312	1076.451049804688	-292.8832702636719	-967.5770263671875	892.4674072265625	-306.9527282714844	-1014.343566894531	867.3391723632812	-360.3932189941406	-1025.416137695312	999.3518676757812	-361.4515380859375	-938.6130981445312	738.9259643554688	-300.0484924316406	-995.3854370117188	789.3884887695312	-352.4066772460938	-942.510986328125	813.2186279296875	-310.6689147949219	-1107.006469726562	1418.08740234375	106.3948287963867	-1133.2099609375	1360.166870117188	180.8749237060547	-1130.517211914062	1080.045166015625	253.2686920166016	-1176.167114257812	1062.620361328125	206.4236297607422	-1035.919799804688	866.7897338867188	246.4940795898438	-1115.14208984375	858.9724731445312	287.128173828125	-1132.113647460938	1023.027099609375	267.7833862304688	-1046.059692382812	711.8239135742188	264.1221618652344	-1029.1845703125	770.3356323242188	265.1480712890625	-1103.319946289062	772.3958740234375	292.596435546875	-1085.534057617188	1646.572998046875	36.6790657043457	-936.060302734375	1665.658813476562	-106.1448287963867	-948.876220703125	1665.315185546875	23.96390724182129	-1084.38671875	1650.907592773438	-141.2508544921875	-1048.988891601562	861.701904296875	-249.6198425292969	-1122.040405273438	861.783447265625	141.9808502197266	-1007.198669433594	899.3700561523438	97.87213897705078	-959.3309936523438	894.7156982421875	-157.4051361083984	-1088.292724609375	446.411376953125	-225.6493072509766	-1044.9677734375	595.39599609375	-238.2218627929688	-1175.718017578125	45.51145935058594	-237.6220397949219	-1104.800659179688	302.8365173339844	-245.9513244628906	-942.3148193359375	44.41657638549805	-160.9450836181641	-1021.466064453125	49.34294891357422	-134.9873657226562	-1019.71923828125	47.35290145874023	-248.40185546875	-1222.022094726562	49.02240753173828	-174.2825012207031	-1116.789916992188	469.2773132324219	125.1243591308594	-1083.251342773438	728.23583984375	158.9472961425781	-1185.589111328125	44.75026702880859	136.4650726318359	-1122.539916992188	328.6471557617188	137.7591400146484	-969.7280883789062	47.14151763916016	87.49945831298828	-1033.344848632812	53.16104125976562	51.97998428344727	-1052.781616210938	47.5301399230957	159.5806732177734	-1250.683959960938	37.24529266357422	92.21826171875	
3	0.02	-1214.941528320312	966.76708984375	-9.28230094909668	-1193.742553710938	963.7666015625	-148.3928680419922	-1193.033447265625	1053.189453125	-66.10595703125	-929.5062866210938	1255.61083984375	-45.84548187255859	-1214.3076171875	1175.63818359375	-76.58708190917969	-1158.033325195312	1446.533935546875	-58.60374450683594	-968.98974609375	1367.157470703125	-53.82490158081055	-1226.162841796875	1324.139892578125	28.12215805053711	-1180.540771484375	1398.085083007812	-159.7119445800781	-1071.366577148438	1422.744995117188	-230.0406646728516	-1071.939208984375	1303.049926757812	-327.6366882324219	-1044.97607421875	1086.38623046875	-352.9441528320312	-1127.407104492188	1076.26171875	-292.718017578125	-967.718994140625	891.9207763671875	-306.8341064453125	-1014.564147949219	867.0034790039062	-360.2774963378906	-1025.40673828125	999.0177612304688	-361.2829895019531	-939.3536987304688	738.0675659179688	-300.268310546875	-996.0359497070312	789.0045776367188	-352.4565124511719	-943.2037353515625	812.5157470703125	-310.6120910644531	-1107.034057617188	1418.085205078125	106.3842926025391	-1133.148315429688	1360.12890625	180.8515777587891	-1130.215087890625	1079.959838867188	253.1905212402344	-1175.955810546875	1062.527709960938	206.4739990234375	-1035.319091796875	866.8367919921875	246.1810607910156	-1114.50927734375	858.9188842773438	286.8982849121094	-1131.658447265625	1022.933227539062	267.5972900390625	-1045.313720703125	711.8480224609375	263.8489990234375	-1028.56494140625	770.3776245117188	264.9026794433594	-1102.602783203125	772.3585205078125	292.3929138183594	-1085.45703125	1646.547729492188	36.54035568237305	-936.1661376953125	1665.53955078125	-106.4142684936523	-948.8143920898438	1665.298706054688	23.65146446228027	-1084.525268554688	1650.855346679688	-141.3821716308594	-1048.96337890625	861.6604614257812	-249.6866302490234	-1122.052856445312	861.7467651367188	141.9620208740234	-1007.200012207031	899.3517456054688	97.87650299072266	-959.37158203125	894.6964111328125	-157.4077453613281	-1088.0859375	446.4116516113281	-225.7454528808594	-1044.766967773438	595.3837280273438	-238.2816009521484	-1175.705078125	45.44705581665039	-237.7085266113281	-1104.635986328125	302.7784729003906	-246.0377502441406	-942.3762817382812	44.42947769165039	-160.8824920654297	-1021.480895996094	49.30466079711914	-134.9462738037109	-1019.764343261719	47.42180633544922	-248.3150482177734	-1222.0703125	49.00891876220703	-174.3770141601562	-1116.716918945312	469.2420654296875	125.1314086914062	-1083.216918945312	728.2056274414062	158.9388580322266	-1185.602905273438	44.74419021606445	136.4664154052734	-1122.501098632812	328.5935668945312	137.7666015625	-969.7472534179688	47.15534973144531	87.49356842041016	-1033.357055664062	53.14080047607422	51.95737457275391	-1052.779174804688	47.5506706237793	159.5659942626953	-1250.69873046875	37.20988082885742	92.2432861328125	
4	0.03	-1215.005981445312	966.689453125	-9.269940376281738	-1193.796997070312	963.6737670898438	-148.4133758544922	-1193.128784179688	1053.119995117188	-66.03656768798828	-929.568603515625	1255.588989257812	-45.82941055297852	-1214.353881835938	1175.569580078125	-76.59378814697266	-1158.103149414062	1446.448852539062	-58.68337631225586	-969.0883178710938	1367.152221679688	-53.86524200439453	-1226.204711914062	1324.0908203125	28.15446853637695	-1180.558837890625	1397.942993164062	-159.7880249023438	-1071.392456054688	1422.55224609375	-230.1316986083984	-1071.970825195312	1302.760009765625	-327.7184753417969	-1044.819580078125	1086.075927734375	-352.6846618652344	-1127.302856445312	1076.052978515625	-292.5643005371094	-967.9686279296875	891.2713623046875	-306.7324829101562	-1014.8798828125	866.6199951171875	-360.1940307617188	-1025.4248046875	998.64599609375	-361.125244140625	-940.2858276367188	737.1139526367188	-300.5238647460938	-996.8755493164062	788.5645751953125	-352.572265625	-944.0779418945312	811.6751098632812	-310.5730590820312	-1107.0634765625	1418.0830078125	106.364387512207	-1133.064453125	1360.083374023438	180.8108673095703	-1129.83740234375	1079.863037109375	253.094970703125	-1175.679321289062	1062.414306640625	206.5094909667969	-1034.653686523438	866.8773803710938	245.790771484375	-1113.751220703125	858.8580932617188	286.6353149414062	-1131.12109375	1022.822998046875	267.3945617675781	-1044.413208007812	711.871337890625	263.4822082519531	-1027.803344726562	770.4209594726562	264.5637512207031	-1101.7587890625	772.3184204101562	292.1714172363281	-1085.358642578125	1646.531982421875	36.36111450195312	-936.288818359375	1665.408935546875	-106.7393417358398	-948.7540893554688	1665.282470703125	23.27481842041016	-1084.693237304688	1650.782592773438	-141.5403747558594	-1048.968017578125	861.621337890625	-249.7704620361328	-1122.06396484375	861.698486328125	141.9449157714844	-1007.208068847656	899.3257446289062	97.88632965087891	-959.4421997070312	894.6596069335938	-157.3992767333984	-1087.825805664062	446.4055786132812	-225.8684844970703	-1044.532348632812	595.3646240234375	-238.3541107177734	-1175.695922851562	45.34945297241211	-237.8169708251953	-1104.434814453125	302.7147827148438	-246.1406860351562	-942.4607543945312	44.44987106323242	-160.807373046875	-1021.499206542969	49.26578903198242	-134.8953094482422	-1019.82763671875	47.50220489501953	-248.2130889892578	-1222.1337890625	48.98951721191406	-174.5098571777344	-1116.62890625	469.1977233886719	125.147087097168	-1083.185424804688	728.1689453125	158.9463043212891	-1185.617553710938	44.7330207824707	136.4718170166016	-1122.445434570312	328.52490234375	137.7775421142578	-969.7708129882812	47.17012023925781	87.48647308349609	-1033.373901367188	53.1192512512207	51.92863082885742	-1052.782592773438	47.57685852050781	159.5494384765625	-1250.717895507812	37.16506576538086	92.27228546142578	
